<svg width="50" height="50" viewBox="0 0 50 50" fill="none" xmlns="http://www.w3.org/2000/svg">
<path d="M36.9324 33.5432C33.5327 36.9854 25 45.625 25 45.625C25 45.625 16.258 36.7735 13.0676 33.5432C6.47748 26.8705 6.47748 16.0521 13.0676 9.37946C19.6577 2.70685 30.3423 2.70685 36.9324 9.37946C43.5225 16.0521 43.5225 26.8705 36.9324 33.5432Z" stroke="#688DBC" stroke-width="2" stroke-linejoin="round"/>
<path d="M30.625 20C30.625 23.1066 28.1066 25.625 25 25.625C21.8934 25.625 19.375 23.1066 19.375 20C19.375 16.8934 21.8934 14.375 25 14.375C28.1066 14.375 30.625 16.8934 30.625 20Z" stroke="#688DBC" stroke-width="2" stroke-linejoin="round"/>
</svg>
