<svg width="50" height="50" viewBox="0 0 50 50" fill="none" xmlns="http://www.w3.org/2000/svg">
<path d="M15.0385 5.03852C14.6137 4.61368 14.0375 4.375 13.4366 4.375C8.43203 4.375 4.375 8.43203 4.375 13.4366V17.711C4.375 20.4467 5.03394 23.1422 6.29606 25.5693C10.3337 33.3341 16.6659 39.6663 24.4307 43.7039C26.8578 44.9661 29.5533 45.625 32.289 45.625H38.4892C42.4302 45.625 45.625 42.4302 45.625 38.4892C45.625 36.6998 44.7307 35.0288 43.2418 34.0362C42.4577 33.5135 39.1493 31.3079 38.7265 31.2031C38.3315 31.1052 37.9185 31.1052 37.5235 31.2031C37.1007 31.3079 33.493 33.8783 32.3607 34.3813C31.2285 34.8842 29.9498 34.9489 28.7726 34.5628C28.3679 34.4301 25.9352 33.3196 24.2942 32.2242C21.3 30.2255 19.7454 28.7192 17.7758 25.7058C16.8797 24.3349 15.9382 22.3277 15.8187 21.9966C15.3309 20.6449 15.512 18.6418 16.5259 17.2939C17.5397 15.9459 20.5316 13.2184 20.7171 12.6475C20.8803 12.1454 20.8803 11.6046 20.7171 11.1025C20.5863 10.6998 15.0385 5.03852 15.0385 5.03852Z" stroke="#688DBC" stroke-width="2" stroke-miterlimit="1.41421" stroke-linejoin="round"/>
</svg>
